<?xml version="1.0" encoding="UTF-8" standalone="no"?>
<!-- Created with Inkscape (http://www.inkscape.org/) -->

<svg
   xmlns:dc="http://purl.org/dc/elements/1.1/"
   xmlns:cc="http://creativecommons.org/ns#"
   xmlns:rdf="http://www.w3.org/1999/02/22-rdf-syntax-ns#"
   xmlns:svg="http://www.w3.org/2000/svg"
   xmlns="http://www.w3.org/2000/svg"
   xmlns:sodipodi="http://sodipodi.sourceforge.net/DTD/sodipodi-0.dtd"
   xmlns:inkscape="http://www.inkscape.org/namespaces/inkscape"
   id="svg2"
   version="1.1"
   inkscape:version="0.91 r"
   xml:space="preserve"
   width="900"
   height="540"
   viewBox="0 0 900 540"
   sodipodi:docname="glm2.svg"><metadata
     id="metadata8"><rdf:RDF><cc:Work
         rdf:about=""><dc:format>image/svg+xml</dc:format><dc:type
           rdf:resource="http://purl.org/dc/dcmitype/StillImage" /><dc:title /></cc:Work></rdf:RDF></metadata><defs
     id="defs6"><clipPath
       clipPathUnits="userSpaceOnUse"
       id="clipPath28"><path
         d="m 63.4,395.13 211.67,0 0,22.47 -211.67,0 0,-22.47 z"
         id="path30"
         inkscape:connector-curvature="0" /></clipPath><clipPath
       clipPathUnits="userSpaceOnUse"
       id="clipPath42"><path
         d="m 278.67,395.13 211.67,0 0,22.47 -211.67,0 0,-22.47 z"
         id="path44"
         inkscape:connector-curvature="0" /></clipPath><clipPath
       clipPathUnits="userSpaceOnUse"
       id="clipPath56"><path
         d="m 493.93,395.13 211.67,0 0,22.47 -211.67,0 0,-22.47 z"
         id="path58"
         inkscape:connector-curvature="0" /></clipPath><clipPath
       clipPathUnits="userSpaceOnUse"
       id="clipPath70"><path
         d="m 63.4,53.45 211.67,0 0,341.67 -211.67,0 0,-341.67 z"
         id="path72"
         inkscape:connector-curvature="0" /></clipPath><clipPath
       clipPathUnits="userSpaceOnUse"
       id="clipPath94"><path
         d="m 278.67,53.45 211.67,0 0,341.67 -211.67,0 0,-341.67 z"
         id="path96"
         inkscape:connector-curvature="0" /></clipPath><clipPath
       clipPathUnits="userSpaceOnUse"
       id="clipPath118"><path
         d="m 493.93,53.45 211.67,0 0,341.67 -211.67,0 0,-341.67 z"
         id="path120"
         inkscape:connector-curvature="0" /></clipPath></defs><sodipodi:namedview
     pagecolor="#ffffff"
     bordercolor="#666666"
     borderopacity="1"
     objecttolerance="10"
     gridtolerance="10"
     guidetolerance="10"
     inkscape:pageopacity="0"
     inkscape:pageshadow="2"
     inkscape:window-width="679"
     inkscape:window-height="716"
     id="namedview4"
     showgrid="false"
     inkscape:zoom="0.72444444"
     inkscape:cx="372.35973"
     inkscape:cy="280.26001"
     inkscape:window-x="683"
     inkscape:window-y="21"
     inkscape:window-maximized="0"
     inkscape:current-layer="g3520" /><g
     id="g10"
     inkscape:groupmode="layer"
     inkscape:label="myp2"
     transform="matrix(1.25,0,0,-1.25,0,540)"><g
       id="g12" /><g
       id="g14" /><g
       id="g16" /><g
       id="g18"><path
         d="M 0,0 720,0 720,432 0,432 0,0 Z"
         style="fill:#ffffff;fill-opacity:1;fill-rule:nonzero;stroke:#ffffff;stroke-width:1.05999994;stroke-linecap:round;stroke-linejoin:round;stroke-miterlimit:10;stroke-dasharray:none;stroke-opacity:1"
         id="path20"
         inkscape:connector-curvature="0" /></g><g
       id="g22" /><g
       id="g24"><g
         id="g26"
         clip-path="url(#clipPath28)"><text
           transform="matrix(1,0,0,-1,146.86,398.73)"
           style="font-variant:normal;font-weight:normal;font-size:25px;font-family:xkcd;-inkscape-font-specification:xkcd;writing-mode:lr-tb;fill:#000000;fill-opacity:1;fill-rule:nonzero;stroke:none"
           id="text32"><tspan
             x="0 11.875 18.375 28.424999 34.924999"
             y="0"
             sodipodi:role="line"
             id="tspan34">n = 3</tspan></text>
</g></g><g
       id="g36" /><g
       id="g38"><g
         id="g40"
         clip-path="url(#clipPath42)"><text
           transform="matrix(1,0,0,-1,361.98,398.73)"
           style="font-variant:normal;font-weight:normal;font-size:25px;font-family:xkcd;-inkscape-font-specification:xkcd;writing-mode:lr-tb;fill:#000000;fill-opacity:1;fill-rule:nonzero;stroke:none"
           id="text46"><tspan
             x="0 11.875 18.375 28.424999 34.924999"
             y="0"
             sodipodi:role="line"
             id="tspan48">n = 6</tspan></text>
</g></g><g
       id="g50" /><g
       id="g52"><g
         id="g54"
         clip-path="url(#clipPath56)"><text
           transform="matrix(1,0,0,-1,577.4,398.73)"
           style="font-variant:normal;font-weight:normal;font-size:25px;font-family:xkcd;-inkscape-font-specification:xkcd;writing-mode:lr-tb;fill:#000000;fill-opacity:1;fill-rule:nonzero;stroke:none"
           id="text60"><tspan
             x="0 11.875 18.375 28.424999 34.924999"
             y="0"
             sodipodi:role="line"
             id="tspan62">n = 9</tspan></text>
</g></g><g
       id="g64" /><g
       id="g66"><g
         id="g68"
         clip-path="url(#clipPath70)"><path
           d="m 68.92,107.14 3.2,-0.45 2.34,-0.33 2.81,-0.23 1.55,-0.13 3.49,-0.02 2.91,0.07 1.94,0.17 2.97,0.26 2.52,0.36 1.29,0.44 3.02,0.52 3.25,0.61 1.67,0.69 2.92,0.82 2.28,1.04 2.53,1.24 2.27,1.41 2.56,1.57 2.84,1.69 2.57,1.8 2.33,1.87 2.3,1.92 3.49,1.95 1.52,1.96 2.97,1.94 3.3,1.89 1.51,1.84 2.22,1.83 2.59,1.83 3.61,1.81 2.66,1.8 1.64,1.78 3.09,1.75 1.69,1.73 2.41,1.7 2.53,1.65 3.13,1.62 2.57,1.57 2.47,1.52 3.35,1.49 1.48,1.53 2.08,1.57 3.11,1.57 1.92,1.56 3.65,1.52 2.96,1.46 2.56,1.37 1.66,1.25 2.82,1.11 2.89,0.93 1.48,0.75 2.45,0.54 3.67,0.29 2.1,0.09 2.42,-0.06 1.65,-0.22 2.98,-0.36 3.25,-0.47 2.91,-0.58 2.34,-0.67 2.62,-0.74 2.35,-0.82 1.82,-0.85 2.04,-0.89 3.89,-0.9 1.35,-0.92 2.5,-0.96 3.61,-1.06 2.54,-1.15 2.57,-1.23 1.53,-1.32 3.59,-1.4 2.6,-1.48 2.26,-1.56 2.13,-1.65 1.78,-1.72 3.57,-1.79 1.56,-1.87 3.08,-1.94"
           style="fill:none;stroke:#404040;stroke-width:2.13000011;stroke-linecap:butt;stroke-linejoin:round;stroke-miterlimit:1;stroke-dasharray:none;stroke-opacity:1"
           id="path74"
           inkscape:connector-curvature="0" /><path
           d="m 70.19,90.8 2.1,-1.24 2.32,-1.11 2.62,-0.97 1.61,-0.85 3.42,-0.73 1.95,-0.6 2.24,-0.48 2.38,-0.36 2.63,-0.26 2.51,-0.15 3.27,-0.04 2.04,0.06 3.57,0.16 2.42,0.33 2.36,0.59 2.74,0.84 1.43,1.05 2.9,1.23 2.3,1.39 3.01,1.52 2.81,1.61 2.05,1.68 2.96,1.72 1.49,1.72 3.99,1.71 2.42,1.65 1.28,1.61 3.97,1.66 2.09,1.7 1.97,1.72 3.47,1.72 1.72,1.69 2.99,1.65 2.28,1.58 3.02,1.49 1.95,1.38 2.86,1.25 1.36,1.1 2.54,0.93 2.72,0.74 2.4,0.59 3.82,0.46 1.81,0.32 2.97,0.21 1.71,0.1 2.76,-0.01 3.08,-0.09 2.42,-0.19 1.81,-0.26 3.69,-0.33 1.73,-0.39 2.2,-0.44 3.43,-0.49 1.57,-0.57 2.35,-0.68 2.52,-0.75 3.66,-0.8 1.98,-0.85 3.26,-0.87 2.6,-0.88 2.11,-0.87 1.99,-0.84 3.05,-0.8 1.56,-0.74 2.68,-0.66 2.75,-0.57 2.06,-0.53 3.15,-0.54 3.17,-0.54 2.91,-0.54 2.34,-0.55 2.52,-0.54 1.8,-0.54 2.41,-0.53 2.2,-0.52 3.89,-0.52 1.09,-0.51 3.32,-0.49 1.54,-0.48"
           style="fill:none;stroke:#404040;stroke-width:2.13000011;stroke-linecap:butt;stroke-linejoin:round;stroke-miterlimit:1;stroke-dasharray:none;stroke-opacity:1"
           id="path82"
           inkscape:connector-curvature="0" /><path
           d="m 65.4,56.68 7.16,-1.2 7.16,-0.47 7.16,0.01 7.16,0.26 7.17,0.37 7.16,0.37 7.16,0.32 7.16,0.23 7.16,0.13 7.16,0.05 7.16,-0.02 7.16,-0.07 7.16,-0.1 7.17,-0.12 7.16,-0.12 7.16,-0.12 7.16,-0.13 7.16,-0.13 7.16,-0.15 7.16,-0.16 7.16,-0.19 7.16,-0.2 7.17,-0.21 7.16,-0.2 7.16,-0.13 7.16,0 7.16,0.23 7.16,0.59 7.16,1.16"
           style="fill:none;stroke:#000000;stroke-width:1.05999994;stroke-linecap:butt;stroke-linejoin:round;stroke-miterlimit:1;stroke-dasharray:none;stroke-opacity:1"
           id="path84"
           inkscape:connector-curvature="0" /><path
           d="m 65.4,56.68 0.6,11.56 0.49,11.56 0.36,11.56 0.22,11.55 0.09,11.56 -0.02,11.56 -0.11,11.56 -0.18,11.56 -0.23,11.56 -0.28,11.56 -0.29,11.56 -0.31,11.56 -0.32,11.56 -0.31,11.56 -0.3,11.56 -0.29,11.56 -0.27,11.56 -0.25,11.56 -0.2,11.56 -0.17,11.56 -0.11,11.56 -0.06,11.56 0.01,11.55 0.08,11.56 0.16,11.56 0.24,11.56 0.34,11.56 0.46,11.56 0.65,11.56"
           style="fill:none;stroke:#000000;stroke-width:1.05999994;stroke-linecap:butt;stroke-linejoin:round;stroke-miterlimit:1;stroke-dasharray:none;stroke-opacity:1"
           id="path86"
           inkscape:connector-curvature="0" /></g></g><g
       id="g88" /><g
       id="g90"><g
         id="g92"
         clip-path="url(#clipPath94)"><path
           d="m 284.18,160.27 3.26,0.91 2.44,0.98 2.85,1.04 2.28,1.1 3.06,1.16 2.15,1.23 2.14,1.29 2.88,1.37 2.56,1.43 2.48,1.49 2.6,1.57 2.06,1.64 3.1,1.71 2.59,1.77 2.37,1.78 1.38,1.8 2.55,1.83 3.02,1.89 3.21,1.93 1.89,2 2.11,2.07 3.47,2.16 1.62,2.25 2.9,2.34 2.67,2.47 2.99,2.58 1.98,2.79 2.55,3.17 2.26,3.51 3.72,3.75 1.3,3.94 2.19,4.01 3.91,4.03 2.42,3.95 2.75,3.8 1.32,3.57 3.66,3.25 2.25,2.87 2.81,2.39 1.41,1.83 2.84,1.31 2.76,0.84 1.7,0.45 3.5,0.14 2.5,-0.09 3.07,-0.24 1.89,-0.33 2.3,-0.34 2.04,-0.25 2.32,-0.12 3.74,0.11 1.5,0.42 3.58,0.77 2.01,0.92 1.79,1 2.76,1.09 3.65,1.2 1.63,1.3 2.14,1.43 3.31,1.56 1.95,1.7 2.74,1.85 3.38,2.02 1.91,2.18 1.88,2.36 2.52,2.55 3.24,2.71 2.74,2.84 2.01,2.97 2.64,3.11 2.98,3.24 2.78,3.37 2.6,3.52 2.75,3.66 1.54,3.79 1.99,3.93 3.59,4.08 2.74,4.22 2.11,4.36"
           style="fill:none;stroke:#404040;stroke-width:2.13000011;stroke-linecap:butt;stroke-linejoin:round;stroke-miterlimit:1;stroke-dasharray:none;stroke-opacity:1"
           id="path98"
           inkscape:connector-curvature="0" /><path
           d="m 284.86,146.6 2.22,0.22 2.31,0.39 2.94,0.55 2.06,0.7 3.69,0.84 2.56,0.97 1.44,1.1 2.77,1.21 2.07,1.32 2.72,1.41 3.65,1.51 1.25,1.58 2.96,1.66 2.84,1.9 1.75,2.43 3.49,2.88 2.07,3.26 2.71,3.56 1.65,3.78 3.71,3.93 1.32,4 3.27,3.97 3.1,3.89 1.31,3.72 3.29,3.46 2.93,3.15 2.72,2.74 1.75,2.35 2.73,1.99 2.47,1.68 1.9,1.4 3.77,1.17 2.21,0.99 1.37,0.84 3.76,0.73 2.42,0.68 1.45,0.66 3.96,0.68 2.49,0.75 1.48,0.81 2.06,0.59 3.89,0.37 1.67,0.22 2.66,0.1 2.56,0.07 3.38,0.06 1.83,0.13 2.48,0.24 3.36,0.41 2.24,0.64 2.58,0.92 2.58,1.25 2.58,1.64 1.92,1.93 3.27,2.15 1.22,2.34 3.83,2.5 1.17,2.6 2.54,2.69 2.71,2.73 2.93,2.74 2.02,2.71 3.17,2.63 1.93,2.53 3.78,2.4 1.25,2.21 3.57,2.18 2.38,2.21 2.59,2.25 1.36,2.28 2.66,2.3 3.18,2.33 2.57,2.34 2.91,2.36 1.33,2.37 3.22,2.38 3.24,2.38 2.56,2.39 1.69,2.38"
           style="fill:none;stroke:#404040;stroke-width:2.13000011;stroke-linecap:butt;stroke-linejoin:round;stroke-miterlimit:1;stroke-dasharray:none;stroke-opacity:1"
           id="path106"
           inkscape:connector-curvature="0" /><path
           d="m 280.67,56.68 7.16,-1.2 7.16,-0.47 7.16,0.01 7.16,0.26 7.16,0.37 7.16,0.37 7.16,0.32 7.16,0.23 7.17,0.13 7.16,0.05 7.16,-0.02 7.16,-0.07 7.16,-0.1 7.16,-0.12 7.16,-0.12 7.16,-0.12 7.16,-0.13 7.17,-0.13 7.16,-0.15 7.16,-0.16 7.16,-0.19 7.16,-0.2 7.16,-0.21 7.16,-0.2 7.16,-0.13 7.16,0 7.17,0.23 7.16,0.59 7.16,1.16"
           style="fill:none;stroke:#000000;stroke-width:1.05999994;stroke-linecap:butt;stroke-linejoin:round;stroke-miterlimit:1;stroke-dasharray:none;stroke-opacity:1"
           id="path108"
           inkscape:connector-curvature="0" /><path
           d="m 280.67,56.68 0.6,11.56 0.49,11.56 0.35,11.56 0.22,11.55 0.09,11.56 -0.01,11.56 -0.11,11.56 -0.18,11.56 -0.24,11.56 -0.27,11.56 -0.3,11.56 -0.31,11.56 -0.31,11.56 -0.31,11.56 -0.31,11.56 -0.29,11.56 -0.27,11.56 -0.24,11.56 -0.21,11.56 -0.16,11.56 -0.12,11.56 -0.05,11.56 0.01,11.55 0.08,11.56 0.16,11.56 0.24,11.56 0.33,11.56 0.47,11.56 0.65,11.56"
           style="fill:none;stroke:#000000;stroke-width:1.05999994;stroke-linecap:butt;stroke-linejoin:round;stroke-miterlimit:1;stroke-dasharray:none;stroke-opacity:1"
           id="path110"
           inkscape:connector-curvature="0" /></g></g><g
       id="g112" /><g
       id="g114"><g
         id="g116"
         clip-path="url(#clipPath118)"><path
           d="m 499.59,177.15 3,3.67 2.71,3.56 2.8,3.47 1.32,3.39 3.43,3.31 2.99,3.26 1.63,3.21 3.26,3.18 2.35,3.15 2.06,3.12 2.49,3.13 3.43,3.13 2.08,3.16 2.31,2.95 2.51,2.4 1.73,1.95 3.15,1.57 2.63,1.3 2.18,1.14 2.54,1.06 2.5,1.09 3.67,1.21 2.41,1.44 1.42,1.75 2.79,2.17 2.81,2.68 2.22,3.39 2.55,4.37 3.16,5.21 1.86,5.9 2.62,6.43 2.91,6.79 2.98,7 1.29,7.03 3.4,6.92 2.93,6.64 1.05,6.2 3.4,5.59 1.72,4.84 2.77,3.98 2.84,3.45 3.09,3.04 2.65,2.66 1.4,2.32 3.47,2.04 1.6,1.78 2.93,1.57 1.84,1.41 2.93,1.28 2.65,1.2 2.49,1.17 2.25,1.16 3.18,1.21 2.02,1.11 2.54,0.98 2.34,0.88 2.84,0.77 3.62,0.69 1.08,0.61 3.61,0.54 2.55,0.5 2.13,0.45 2.53,0.43 1.65,0.42 3.07,0.41 3.51,0.42 2.12,0.38 2.11,0.32 2.98,0.27 1.63,0.2 2.28,0.14 3.46,0.09 2.61,0.03 2.93,-0.03 1.78,-0.07 2.43,-0.14 2.8,-0.18 3.32,-0.23 2.45,-0.27"
           style="fill:none;stroke:#404040;stroke-width:2.13000011;stroke-linecap:butt;stroke-linejoin:round;stroke-miterlimit:1;stroke-dasharray:none;stroke-opacity:1"
           id="path122"
           inkscape:connector-curvature="0" /><path
           d="m 499.53,161.6 3.2,3.53 2.98,3.51 0.98,3.5 3.39,3.49 2.93,3.49 2.89,3.48 2.43,3.49 1.84,3.49 1.89,3.5 3.29,3.53 2.35,3.54 3.24,3.57 2.47,3.59 2.01,3.54 2.85,3.34 2.38,3.18 2.11,3.05 2.63,2.97 2.4,2.92 2.43,2.92 2.49,2.95 3.02,3.02 2.52,3.13 2.78,3.29 1.9,3.47 2.67,3.69 2.11,4.03 3.22,4.53 1.52,4.95 3.96,5.29 1.07,5.54 3.83,5.71 1.26,5.77 3.86,5.76 1.42,5.66 3.13,5.45 2.82,5.18 1.64,4.8 2.91,4.35 3.17,3.83 1.44,3.54 3.74,3.3 1.3,3.07 3.01,2.86 1.92,2.65 2.9,2.46 3.72,2.29 1.86,2.12 2.72,1.96 2.56,1.83 2.09,1.7 2.38,1.59 1.92,1.48 2.89,1.32 3.26,1.16 2.07,1 3.21,0.87 2.07,0.76 2.49,0.64 2.49,0.56 2.65,0.47 2.08,0.42 3.25,0.36 2.78,0.34 2.07,0.32 1.93,0.31 2.84,0.26 3.34,0.16 2.17,0.08 1.85,-0.01 3.69,-0.09 2.29,-0.18 1.36,-0.26 2.56,-0.33 3.24,-0.42 2.44,-0.5 3.19,-0.57 1.19,-0.65 3.51,-0.72"
           style="fill:none;stroke:#404040;stroke-width:2.13000011;stroke-linecap:butt;stroke-linejoin:round;stroke-miterlimit:1;stroke-dasharray:none;stroke-opacity:1"
           id="path130"
           inkscape:connector-curvature="0" /><path
           d="m 495.93,56.68 7.16,-1.2 7.16,-0.47 7.16,0.01 7.17,0.26 7.16,0.37 7.16,0.37 7.16,0.32 7.16,0.23 7.16,0.13 7.16,0.05 7.16,-0.02 7.16,-0.07 7.17,-0.1 7.16,-0.12 7.16,-0.12 7.16,-0.12 7.16,-0.13 7.16,-0.13 7.16,-0.15 7.16,-0.16 7.16,-0.19 7.17,-0.2 7.16,-0.21 7.16,-0.2 7.16,-0.13 7.16,0 7.16,0.23 7.16,0.59 7.16,1.16"
           style="fill:none;stroke:#000000;stroke-width:1.05999994;stroke-linecap:butt;stroke-linejoin:round;stroke-miterlimit:1;stroke-dasharray:none;stroke-opacity:1"
           id="path132"
           inkscape:connector-curvature="0" /><path
           d="m 495.93,56.68 0.6,11.56 0.49,11.56 0.36,11.56 0.22,11.55 0.09,11.56 -0.02,11.56 -0.11,11.56 -0.18,11.56 -0.23,11.56 -0.28,11.56 -0.29,11.56 -0.31,11.56 -0.32,11.56 -0.31,11.56 -0.3,11.56 -0.29,11.56 -0.27,11.56 -0.25,11.56 -0.2,11.56 -0.17,11.56 -0.11,11.56 -0.05,11.56 0.01,11.55 0.08,11.56 0.15,11.56 0.24,11.56 0.34,11.56 0.47,11.56 0.64,11.56"
           style="fill:none;stroke:#000000;stroke-width:1.05999994;stroke-linecap:butt;stroke-linejoin:round;stroke-miterlimit:1;stroke-dasharray:none;stroke-opacity:1"
           id="path134"
           inkscape:connector-curvature="0" /><path
           d="m 622.48,214.75 -2.1,0.5 -2.07,0.14 -2.02,-0.16 -1.96,-0.45 -1.86,-0.7 -1.77,-0.93 -1.65,-1.14 -1.52,-1.32 -1.37,-1.49 -1.23,-1.62 -1.06,-1.75 -0.91,-1.85 -0.73,-1.92 -0.57,-1.98 -0.4,-2.02 -0.22,-2.03 -0.06,-2.02 0.1,-2 0.27,-1.96 0.42,-1.9 0.56,-1.82 0.71,-1.72 0.84,-1.62 0.97,-1.49 1.07,-1.36 1.18,-1.21 1.27,-1.06 1.35,-0.89 1.41,-0.72 1.47,-0.55 1.5,-0.37 1.53,-0.18 1.53,0 1.54,0.18 1.52,0.37 1.48,0.55 1.44,0.72 1.39,0.89 1.31,1.07 1.23,1.21 1.13,1.37 1.03,1.51 0.9,1.63 0.78,1.75 0.63,1.85 0.49,1.94 0.33,2.01 0.17,2.06 -0.01,2.1 -0.18,2.12 -0.36,2.12 -0.55,2.09 -0.74,2.05 -0.91,1.99 -1.11,1.89 -1.28,1.77 -1.47,1.64 -1.63,1.46 -1.8,1.26"
           style="fill:none;stroke:#ffffff;stroke-width:6.38000011;stroke-linecap:butt;stroke-linejoin:round;stroke-miterlimit:1;stroke-dasharray:none;stroke-opacity:1"
           id="path136"
           inkscape:connector-curvature="0" /><path
           d="m 618.78,168.05 0,-48.35"
           style="fill:none;stroke:#ffffff;stroke-width:6.38000011;stroke-linecap:butt;stroke-linejoin:round;stroke-miterlimit:1;stroke-dasharray:none;stroke-opacity:1"
           id="path140"
           inkscape:connector-curvature="0" /><path
           d="m 618.78,168.05 -23.96,0"
           style="fill:none;stroke:#ffffff;stroke-width:6.38000011;stroke-linecap:butt;stroke-linejoin:round;stroke-miterlimit:1;stroke-dasharray:none;stroke-opacity:1"
           id="path144"
           inkscape:connector-curvature="0" /><path
           d="m 594.82,168.05 -14.12,17.1"
           style="fill:none;stroke:#ffffff;stroke-width:6.38000011;stroke-linecap:butt;stroke-linejoin:round;stroke-miterlimit:1;stroke-dasharray:none;stroke-opacity:1"
           id="path148"
           inkscape:connector-curvature="0" /><path
           d="m 598.03,182.56 -14.12,17.09"
           style="fill:none;stroke:#ffffff;stroke-width:6.38000011;stroke-linecap:butt;stroke-linejoin:round;stroke-miterlimit:1;stroke-dasharray:none;stroke-opacity:1"
           id="path156"
           inkscape:connector-curvature="0" /><path
           d="m 618.78,119.7 12.4,-56.04"
           style="fill:none;stroke:#ffffff;stroke-width:6.38000011;stroke-linecap:butt;stroke-linejoin:round;stroke-miterlimit:1;stroke-dasharray:none;stroke-opacity:1"
           id="path160"
           inkscape:connector-curvature="0" /><path
           d="M 618.78,119.7 606.38,63.66"
           style="fill:none;stroke:#ffffff;stroke-width:6.38000011;stroke-linecap:butt;stroke-linejoin:round;stroke-miterlimit:1;stroke-dasharray:none;stroke-opacity:1"
           id="path164"
           inkscape:connector-curvature="0" /><path
           d="m 639.7,208.17 -0.56,0.56 0.52,0.55 0.94,0.56 1,0.56 0.87,0.55 0.7,0.56 0.55,0.55 0.47,0.56 0.46,0.55 0.56,0.56 0.72,0.56 0.93,0.55 1.18,0.56 1.43,0.55 1.67,0.56 1.86,0.55 2.01,0.56 2.07,0.56 2.06,0.55 1.97,0.56 1.8,0.55 1.56,0.56 1.26,0.55 0.95,0.56 0.61,0.56 0.28,0.55 -0.05,0.56 -0.38,0.55 -0.81,0.56"
           style="fill:none;stroke:#ffffff;stroke-width:6.38000011;stroke-linecap:butt;stroke-linejoin:round;stroke-miterlimit:1;stroke-dasharray:none;stroke-opacity:1"
           id="path172"
           inkscape:connector-curvature="0" /></g></g><g
       id="g176" /><g
       id="g178" /><g
       id="g180"><text
         transform="matrix(1,0,0,-1,44.94,56.4)"
         style="font-variant:normal;font-weight:normal;font-size:22px;font-family:xkcd;-inkscape-font-specification:xkcd;writing-mode:lr-tb;fill:#7f7f7f;fill-opacity:1;fill-rule:nonzero;stroke:none"
         id="text182"><tspan
           x="0"
           y="0"
           id="tspan184">0</tspan></text>
<text
         transform="matrix(1,0,0,-1,35.31,314.27)"
         style="font-variant:normal;font-weight:normal;font-size:22px;font-family:xkcd;-inkscape-font-specification:xkcd;writing-mode:lr-tb;fill:#7f7f7f;fill-opacity:1;fill-rule:nonzero;stroke:none"
         id="text186"><tspan
           x="0 9.6359997"
           y="0"
           sodipodi:role="line"
           id="tspan188">80</tspan></text>
<text
         transform="matrix(1,0,0,-1,29.68,378.73)"
         style="font-variant:normal;font-weight:normal;font-size:22px;font-family:xkcd;-inkscape-font-specification:xkcd;writing-mode:lr-tb;fill:#7f7f7f;fill-opacity:1;fill-rule:nonzero;stroke:none"
         id="text190"><tspan
           x="0 3.8940001 15.268"
           y="0"
           sodipodi:role="line"
           id="tspan192">100</tspan></text>
</g><g
       id="g194" /><g
       id="g196"><path
         d="m 59.15,63.12 4.25,0"
         style="fill:none;stroke:#000000;stroke-width:1.05999994;stroke-linecap:butt;stroke-linejoin:round;stroke-miterlimit:10;stroke-dasharray:none;stroke-opacity:1"
         id="path198"
         inkscape:connector-curvature="0" /><path
         d="m 59.15,320.99 4.25,0"
         style="fill:none;stroke:#000000;stroke-width:1.05999994;stroke-linecap:butt;stroke-linejoin:round;stroke-miterlimit:10;stroke-dasharray:none;stroke-opacity:1"
         id="path200"
         inkscape:connector-curvature="0" /><path
         d="m 59.15,385.46 4.25,0"
         style="fill:none;stroke:#000000;stroke-width:1.05999994;stroke-linecap:butt;stroke-linejoin:round;stroke-miterlimit:10;stroke-dasharray:none;stroke-opacity:1"
         id="path202"
         inkscape:connector-curvature="0" /></g><g
       id="g204" /><g
       id="g206" /><g
       id="g208" /><g
       id="g210" /><g
       id="g212" /><g
       id="g214"><path
         d="m 86.03,49.2 0,4.25"
         style="fill:none;stroke:#000000;stroke-width:1.05999994;stroke-linecap:butt;stroke-linejoin:round;stroke-miterlimit:10;stroke-dasharray:none;stroke-opacity:1"
         id="path216"
         inkscape:connector-curvature="0" /><path
         d="m 252.44,49.2 0,4.25"
         style="fill:none;stroke:#000000;stroke-width:1.05999994;stroke-linecap:butt;stroke-linejoin:round;stroke-miterlimit:10;stroke-dasharray:none;stroke-opacity:1"
         id="path218"
         inkscape:connector-curvature="0" /></g><g
       id="g220" /><g
       id="g222"><text
         transform="matrix(1,0,0,-1,62.09,32.92)"
         style="font-variant:normal;font-weight:normal;font-size:22px;font-family:xkcd;-inkscape-font-specification:xkcd;writing-mode:lr-tb;fill:#7f7f7f;fill-opacity:1;fill-rule:nonzero;stroke:none"
         id="text224"><tspan
           x="0 9.1739998 20.261999 30.25 39.071999"
           y="0"
           sodipodi:role="line"
           id="tspan226">small</tspan></text>
<text
         transform="matrix(1,0,0,-1,238.79,32.92)"
         style="font-variant:normal;font-weight:normal;font-size:22px;font-family:xkcd;-inkscape-font-specification:xkcd;writing-mode:lr-tb;fill:#7f7f7f;fill-opacity:1;fill-rule:nonzero;stroke:none"
         id="text228"><tspan
           x="0 10.34 14.41"
           y="0"
           sodipodi:role="line"
           id="tspan230">big</tspan></text>
</g><g
       id="g232" /><g
       id="g234" /><g
       id="g236" /><g
       id="g238" /><g
       id="g240" /><g
       id="g242"><path
         d="m 301.3,49.2 0,4.25"
         style="fill:none;stroke:#000000;stroke-width:1.05999994;stroke-linecap:butt;stroke-linejoin:round;stroke-miterlimit:10;stroke-dasharray:none;stroke-opacity:1"
         id="path244"
         inkscape:connector-curvature="0" /><path
         d="m 467.7,49.2 0,4.25"
         style="fill:none;stroke:#000000;stroke-width:1.05999994;stroke-linecap:butt;stroke-linejoin:round;stroke-miterlimit:10;stroke-dasharray:none;stroke-opacity:1"
         id="path246"
         inkscape:connector-curvature="0" /></g><g
       id="g248" /><g
       id="g250"><text
         transform="matrix(1,0,0,-1,277.35,32.92)"
         style="font-variant:normal;font-weight:normal;font-size:22px;font-family:xkcd;-inkscape-font-specification:xkcd;writing-mode:lr-tb;fill:#7f7f7f;fill-opacity:1;fill-rule:nonzero;stroke:none"
         id="text252"><tspan
           x="0 9.1739998 20.261999 30.25 39.071999"
           y="0"
           sodipodi:role="line"
           id="tspan254">small</tspan></text>
<text
         transform="matrix(1,0,0,-1,454.05,32.92)"
         style="font-variant:normal;font-weight:normal;font-size:22px;font-family:xkcd;-inkscape-font-specification:xkcd;writing-mode:lr-tb;fill:#7f7f7f;fill-opacity:1;fill-rule:nonzero;stroke:none"
         id="text256"><tspan
           x="0 10.34 14.41"
           y="0"
           sodipodi:role="line"
           id="tspan258">big</tspan></text>
</g><g
       id="g260" /><g
       id="g262" /><g
       id="g264" /><g
       id="g266" /><g
       id="g268" /><g
       id="g270"><path
         d="m 516.57,49.2 0,4.25"
         style="fill:none;stroke:#000000;stroke-width:1.05999994;stroke-linecap:butt;stroke-linejoin:round;stroke-miterlimit:10;stroke-dasharray:none;stroke-opacity:1"
         id="path272"
         inkscape:connector-curvature="0" /><path
         d="m 682.97,49.2 0,4.25"
         style="fill:none;stroke:#000000;stroke-width:1.05999994;stroke-linecap:butt;stroke-linejoin:round;stroke-miterlimit:10;stroke-dasharray:none;stroke-opacity:1"
         id="path274"
         inkscape:connector-curvature="0" /></g><g
       id="g276" /><g
       id="g278"><text
         transform="matrix(1,0,0,-1,492.62,32.92)"
         style="font-variant:normal;font-weight:normal;font-size:22px;font-family:xkcd;-inkscape-font-specification:xkcd;writing-mode:lr-tb;fill:#7f7f7f;fill-opacity:1;fill-rule:nonzero;stroke:none"
         id="text280"><tspan
           x="0 9.1739998 20.261999 30.25 39.071999"
           y="0"
           sodipodi:role="line"
           id="tspan282">small</tspan></text>
<text
         transform="matrix(1,0,0,-1,669.32,32.92)"
         style="font-variant:normal;font-weight:normal;font-size:22px;font-family:xkcd;-inkscape-font-specification:xkcd;writing-mode:lr-tb;fill:#7f7f7f;fill-opacity:1;fill-rule:nonzero;stroke:none"
         id="text284"><tspan
           x="0 10.34 14.41"
           y="0"
           sodipodi:role="line"
           id="tspan286">big</tspan></text>
</g><g
       id="g288" /><g
       id="g290" /><g
       id="g292" /><g
       id="g294" /><g
       id="g296"><text
         transform="matrix(1,0,0,-1,326.81,12.8)"
         style="font-variant:normal;font-weight:normal;font-size:25px;font-family:xkcd;-inkscape-font-specification:xkcd;writing-mode:lr-tb;fill:#000000;fill-opacity:1;fill-rule:nonzero;stroke:none"
         id="text298"><tspan
           x="0 11.675 23.475 35.275002 46.950001 58.674999 70.675003 77.175003 87.599998 92.224998 103.7"
           y="0"
           sodipodi:role="line"
           id="tspan300">Effect size</tspan></text>
</g><g
       id="g302" /><g
       id="g304"><text
         transform="matrix(0,1,1,0,26.08,194.3)"
         style="font-variant:normal;font-weight:normal;font-size:25px;font-family:xkcd;-inkscape-font-specification:xkcd;writing-mode:lr-tb;fill:#000000;fill-opacity:1;fill-rule:nonzero;stroke:none"
         id="text306"><tspan
           x="0 11.875 24.049999 36.474998 48.150002"
           y="0"
           sodipodi:role="line"
           id="tspan308">Power</tspan></text>
</g><g
       id="g310" /><g
       id="g312" /><g
       id="g314" /><g
       id="g316" /><g
       id="g318" /><g
       id="g320"><path
         d="m 73.44,329.76 109.54,0 0,55.33 -109.54,0 0,-55.33 z"
         style="fill:#ffffff;fill-opacity:1;fill-rule:nonzero;stroke:none"
         id="path322"
         inkscape:connector-curvature="0" /></g><g
       id="g324" /><g
       id="g326" /><g
       id="g328" /><g
       id="g330" /><g
       id="g332" /><g
       id="g338" /><g
       id="g340" /><g
       id="g342" /><g
       id="g348" /><g
       id="g356" /><g
       id="g358" /><g
       id="g364" /><g
       id="g366" /><g
       id="g368" /><g
       id="g370" /><g
       id="g372" /><g
       id="g374" /><g
       id="g376" /><g
       id="g378" /><g
       id="g380" /><g
       id="g382" /><g
       id="g384" /><g
       id="g386" /><path
       style="fill:none;fill-rule:evenodd;stroke:#000000;stroke-width:1.41732283;stroke-linecap:butt;stroke-linejoin:miter;stroke-opacity:1;stroke-miterlimit:4;stroke-dasharray:11.33858268,11.33858268;stroke-dashoffset:0"
       d="M 63.249183,321.19042 719.9475,320.8"
       id="path3760"
       inkscape:connector-curvature="0"
       sodipodi:nodetypes="cc" /><g
       transform="translate(0,1.2773438e-4)"
       id="g3520"><g
         id="g344"><path
           inkscape:connector-curvature="0"
           id="path346"
           style="fill:none;stroke:#404040;stroke-width:4.25;stroke-linecap:butt;stroke-linejoin:round;stroke-miterlimit:10;stroke-dasharray:none;stroke-opacity:1"
           d="m 79.42,342.66 13.82,0" /></g><text
         transform="scale(1,-1)"
         sodipodi:linespacing="125%"
         id="text3714"
         y="-334.04907"
         x="97.730064"
         style="font-style:normal;font-variant:normal;font-weight:normal;font-stretch:normal;font-size:14.39999962px;line-height:125%;font-family:FontAwesome;-inkscape-font-specification:FontAwesome;letter-spacing:0px;word-spacing:0px;fill:#000000;fill-opacity:1;stroke:none;stroke-width:1px;stroke-linecap:butt;stroke-linejoin:miter;stroke-opacity:1"
         xml:space="preserve"><tspan
           style="font-style:normal;font-variant:normal;font-weight:500;font-stretch:normal;font-size:22px;font-family:xkcd;-inkscape-font-specification:'xkcd Medium'"
           id="tspan3718"
           y="-334.04907"
           x="97.730064"
           sodipodi:role="line">LM</tspan></text>
</g></g></svg>